# xmcd CD database file
#
# Track frame offsets:
#	150
#	34920
#	63886
#	85636
#	110512
#	127052
#	152148
#	171201
#	205991
#	217218
#	232208
#	241617
#
# Disc length: 3441 seconds
#
# Revision: 0
# Processed by: cddbd v1.5.1PL2 Copyright (c) Steve Scherf et al.
# Submitted via: CDex 1.51
#
DISCID=a90d6f0c
DTITLE=Leszek Mo¿d¿er Trio - Hanna Banaszak and Ptaszyn Wróblewski Quartet - The Globetrotters - Jazz Combo - Sopot Jazz 2003
DYEAR=2003
DGENRE=Jazz
TTITLE0=Incognitor - Leszek Mo¿d¿er Trio
TTITLE1=Easy Money - Leszek Mo¿d¿er Trio
TTITLE2=The Shadow of Your Smile - Hanna Banaszak and Ptaszyn Wróblewski Quartet
TTITLE3=Good Morning, Heartache - Hanna Banaszak and Ptaszyn Wróblewski Quartet
TTITLE4=One Note Samba - Hanna Banaszak and Ptaszyn Wróblewski Quartet
TTITLE5=Summertime - Hanna Banaszak and Ptaszyn Wróblewski Quartet
TTITLE6=Fatima - The Globetrotters
TTITLE7=Journey a Pleasant! - The Globetrotters
TTITLE8=A Foggy Day - Jazz Combo
TTITLE9=In the Mood - Jazz Combo
TTITLE10=Jersey Bounce - Jazz Combo
TTITLE11=Moonglow - Jazz Combo
EXTD=YEAR: 2003
EXTT0=
EXTT1=
EXTT2=
EXTT3=
EXTT4=
EXTT5=
EXTT6=
EXTT7=
EXTT8=
EXTT9=
EXTT10=
EXTT11=
PLAYORDER=
